<?xml version="1.0" encoding="utf-8"?>
<!-- Generator: Adobe Illustrator 23.0.3, SVG Export Plug-In . SVG Version: 6.00 Build 0)  -->
<svg version="1.1" id="Слой_1" xmlns="http://www.w3.org/2000/svg" xmlns:xlink="http://www.w3.org/1999/xlink" x="0px" y="0px"
	 viewBox="0 0 127 127" style="enable-background:new 0 0 127 127;" xml:space="preserve">
<style type="text/css">
	.st0{fill:#2A3180;}
	.st1{fill:none;stroke:#FFFFFF;stroke-width:3;stroke-linecap:round;stroke-linejoin:round;}
	.st2{fill-rule:evenodd;clip-rule:evenodd;fill:#FFFFFF;}
	
		.st3{fill-rule:evenodd;clip-rule:evenodd;fill:#2A3180;stroke:#FFFFFF;stroke-width:3;stroke-linecap:round;stroke-linejoin:round;}
</style>
<circle class="st0" cx="63.5" cy="63.5" r="63.5"/>
<path id="Polygon_1" class="st1" d="M77.6,48.5l0.6-9.1l9.5-6.3l5.3,5.3l-6.3,9.5L77.6,48.5z"/>
<path id="Rounded_Rectangle_1" class="st1" d="M52.2,68.3l5.7,5.7c0.8,0.8,0.8,2,0,2.8L42.3,92.4c-2.4,2.3-6.2,2.3-8.5-0.1
	c-2.3-2.3-2.3-6.1,0-8.4l15.6-15.6C50.1,67.5,51.4,67.5,52.2,68.3C52.2,68.3,52.2,68.3,52.2,68.3z"/>
<path class="st2" d="M77.6,47.1l2.1,2.1L57.1,71.9L55,69.7L77.6,47.1z"/>
<path class="st3" d="M92.1,83.9L59,50.8c1.7-4.8,0.7-10.4-3.2-14.3c-3.6-3.6-8.6-4.7-13.1-3.6l7,7c2.6,2.7,2.6,7,0,9.7
	s-6.9,2.7-9.6,0L33,42.5c-1.3,4.6-0.1,9.8,3.5,13.4c4.1,4.1,10.2,5,15.2,2.8l32.8,32.8c0.1,0.1,0.1,0.1,0.2,0.2c2.1,2,5.5,2,7.6-0.2
	C94.3,89.3,94.2,85.9,92.1,83.9z"/>
</svg>
