<?xml version="1.0" encoding="utf-8"?>
<!-- Generator: Adobe Illustrator 23.0.3, SVG Export Plug-In . SVG Version: 6.00 Build 0)  -->
<svg version="1.1" id="_3" xmlns="http://www.w3.org/2000/svg" xmlns:xlink="http://www.w3.org/1999/xlink" x="0px" y="0px"
	 viewBox="0 0 127 127" style="enable-background:new 0 0 127 127;" xml:space="preserve">
<style type="text/css">
	.st0{fill:#2A3180;}
	
		.st1{fill-rule:evenodd;clip-rule:evenodd;fill:#2A3180;stroke:#FFFFFF;stroke-width:3;stroke-linecap:round;stroke-linejoin:round;}
	.st2{fill:none;stroke:#FFFFFF;stroke-width:3;stroke-linecap:round;stroke-linejoin:round;}
	.st3{fill:#2A3180;stroke:#FFFFFF;stroke-width:3;stroke-linecap:round;stroke-linejoin:round;}
</style>
<circle class="st0" cx="63.5" cy="63.5" r="63.5"/>
<path class="st1" d="M63.5,28.3c10.9-0.1,19.8,8.8,19.9,19.7c0,10.9-19.9,37.7-19.9,37.7S43.6,58.9,43.6,48
	C43.7,37.1,52.6,28.3,63.5,28.3z"/>
<circle class="st2" cx="63.5" cy="47.5" r="8"/>
<path id="Ellipse_2_copy" class="st1" d="M45.5,61c7.2-0.1,13.1,5.7,13.1,12.9c0,7.1-13.1,24.8-13.1,24.8S32.4,81,32.4,73.9
	C32.4,66.7,38.3,60.9,45.5,61z"/>
<circle id="Ellipse_3_copy" class="st2" cx="45.5" cy="72.5" r="5.1"/>
<path id="Ellipse_2_copy-2" class="st1" d="M80.3,63c5.8,0,10.6,4.7,10.6,10.6c0,5.8-10.6,20.3-10.6,20.3S69.7,79.5,69.7,73.6
	C69.7,67.8,74.5,63,80.3,63z"/>
<circle id="Ellipse_3_copy-2" class="st3" cx="80.3" cy="73.5" r="4.1"/>
</svg>
