<?xml version="1.0" encoding="utf-8"?>
<!-- Generator: Adobe Illustrator 23.0.3, SVG Export Plug-In . SVG Version: 6.00 Build 0)  -->
<svg version="1.1" id="_4" xmlns="http://www.w3.org/2000/svg" xmlns:xlink="http://www.w3.org/1999/xlink" x="0px" y="0px"
	 viewBox="0 0 127 127" style="enable-background:new 0 0 127 127;" xml:space="preserve">
<style type="text/css">
	.st0{fill:#2A3180;}
	
		.st1{fill-rule:evenodd;clip-rule:evenodd;fill:#2A3180;stroke:#FFFFFF;stroke-width:3;stroke-linecap:round;stroke-linejoin:round;}
	
		.st2{fill-rule:evenodd;clip-rule:evenodd;fill:#2A3180;stroke:#FFFFFF;stroke-width:2;stroke-linecap:round;stroke-linejoin:round;}
</style>
<circle class="st0" cx="63.5" cy="63.5" r="63.5"/>
<path class="st1" d="M61.7,50.5c0-1.3-0.2-2.6-0.5-3.9l6.2-3.6L64,37.3l-6.2,3.6C56,39,53.7,37.6,51.1,37v-7.1h-6.7V37
	c-2.6,0.6-4.9,2-6.6,3.8l-6.2-3.6l-3.4,5.8l6.2,3.6c-0.3,1.2-0.5,2.5-0.5,3.8c0,1.3,0.2,2.6,0.5,3.8l-6.2,3.6l3.4,5.8l6.2-3.6
	c1.8,1.8,4.1,3.2,6.6,3.8v7.1h6.7v-7.1c2.6-0.6,4.9-2,6.6-3.8l6.2,3.6l3.4-5.8l-6.2-3.6C61.5,53.1,61.7,51.8,61.7,50.5z M47.7,57.8
	c-4,0-7.3-3.3-7.3-7.3c0-4,3.3-7.3,7.3-7.3c0,0,0,0,0,0c4,0,7.3,3.3,7.3,7.3C55,54.5,51.8,57.8,47.7,57.8z"/>
<path class="st2" d="M96.3,61.6c-0.4-1.8-1.4-3.4-2.7-4.6l2.4-4.2l-3.9-2.3l-2.4,4.2c-0.8-0.2-1.7-0.4-2.7-0.4
	c-0.9,0-1.7,0.1-2.5,0.4l-2.4-4.2l-3.9,2.3l2.4,4.2c-1.3,1.2-2.2,2.8-2.7,4.6h-4.7v4.6h4.8c0.4,1.8,1.4,3.4,2.7,4.6l-2.4,4.2
	l3.9,2.3l2.4-4.2c0.8,0.2,1.7,0.4,2.7,0.4c0.9,0,1.7-0.1,2.5-0.4l2.4,4.2l3.9-2.3l-2.4-4.2c1.3-1.2,2.2-2.8,2.6-4.6h4.8v-4.6H96.3z
	 M87.1,68.4c-2.5,0-4.5-2-4.5-4.5c0-2.5,2-4.5,4.5-4.5s4.5,2,4.5,4.5C91.6,66.4,89.6,68.4,87.1,68.4z"/>
<path class="st2" d="M71.6,87.1c0.1-1.6-0.4-3.2-1.2-4.5l3-3.1l-2.8-2.9l-3.1,3.1c-0.6-0.4-1.3-0.7-2.1-1c0,0-0.1,0-0.1,0
	c-0.7-0.2-1.5-0.3-2.2-0.2l-1.1-4.3l-3.9,1.1l1.1,4.2c-1.4,0.8-2.5,1.9-3.3,3.3L52,81.7l-1.1,4l4.1,1.1c-0.1,1.6,0.4,3.2,1.2,4.5
	l-3,3.1l2.8,2.9l3.1-3.1c0.6,0.4,1.3,0.7,2.1,1c0,0,0.1,0,0.1,0c0.7,0.2,1.5,0.3,2.2,0.2l1.1,4.3l3.9-1.1l-1.1-4.2
	c1.4-0.8,2.5-1.9,3.3-3.3l4.1,1.1l1.1-4L71.6,87.1z M63.3,91.8c-2.7,0-4.9-2.2-4.9-4.9s2.2-4.9,4.9-4.9s4.9,2.2,4.9,4.9
	S66,91.8,63.3,91.8z"/>
</svg>
