<?xml version="1.0" encoding="utf-8"?>
<!-- Generator: Adobe Illustrator 23.0.3, SVG Export Plug-In . SVG Version: 6.00 Build 0)  -->
<svg version="1.1" id="_5" xmlns="http://www.w3.org/2000/svg" xmlns:xlink="http://www.w3.org/1999/xlink" x="0px" y="0px"
	 viewBox="0 0 127 127" style="enable-background:new 0 0 127 127;" xml:space="preserve">
<style type="text/css">
	.st0{fill:#2A3180;}
	
		.st1{fill-rule:evenodd;clip-rule:evenodd;fill:#2A3180;stroke:#FFFFFF;stroke-width:3;stroke-linecap:round;stroke-linejoin:round;}
	.st2{fill-rule:evenodd;clip-rule:evenodd;fill:#FFFFFF;}
	.st3{fill:none;stroke:#2A3180;stroke-width:4;stroke-linecap:round;stroke-linejoin:round;}
	.st4{fill:none;stroke:#FFFFFF;stroke-width:2;stroke-linecap:round;stroke-linejoin:round;}
</style>
<circle class="st0" cx="63.5" cy="63.5" r="63.5"/>
<path class="st1" d="M33.2,36.7h13.4v13.4H33.2V36.7z"/>
<path id="Rectangle_1_copy" class="st1" d="M33.2,59h13.4v13.4H33.2V59z"/>
<path id="Rectangle_1_copy_2" class="st1" d="M33.2,81.2h13.4v13.4H33.2V81.2z"/>
<path id="Shape_1_copy" class="st2" d="M54.3,64.3L54.3,64.3c0-0.5,0.4-0.9,0.9-0.9h40.9c0.5,0,0.9,0.4,0.9,0.9v0
	c0,0.5-0.4,0.9-0.9,0.9H55.2C54.7,65.2,54.3,64.8,54.3,64.3z"/>
<path id="Shape_1_copy_1_" class="st2" d="M54.3,41.1L54.3,41.1c0-0.5,0.4-0.9,0.9-0.9h40.9c0.5,0,0.9,0.4,0.9,0.9v0
	c0,0.5-0.4,0.9-0.9,0.9H55.2C54.7,42,54.3,41.6,54.3,41.1z"/>
<path id="Shape_1_copy_2" class="st2" d="M54.3,85.6L54.3,85.6c0-0.5,0.4-0.9,0.9-0.9h40.9c0.5,0,0.9,0.4,0.9,0.9v0
	c0,0.5-0.4,0.9-0.9,0.9l-40.9,0C54.7,86.5,54.3,86.1,54.3,85.6z"/>
<path id="Shape_1_copy_2_1_" class="st2" d="M54.3,91.2L54.3,91.2c0-0.5,0.4-0.9,0.9-0.9h23.2c0.5,0,0.9,0.4,0.9,0.9v0
	c0,0.5-0.4,0.9-0.9,0.9l-23.2,0C54.7,92.1,54.3,91.7,54.3,91.2z"/>
<path id="Shape_1_copy_2_3_" class="st2" d="M54.3,46.6L54.3,46.6c0-0.5,0.4-0.9,0.9-0.9h23.2c0.5,0,0.9,0.4,0.9,0.9l0,0
	c0,0.5-0.4,0.9-0.9,0.9l-23.2,0C54.7,47.6,54.3,47.1,54.3,46.6z"/>
<path id="Shape_1_copy_2_2_" class="st2" d="M54.3,69.8L54.3,69.8c0-0.5,0.4-0.9,0.9-0.9h23.2c0.5,0,0.9,0.4,0.9,0.9v0
	c0,0.5-0.4,0.9-0.9,0.9l-23.2,0C54.7,70.8,54.3,70.3,54.3,69.8z"/>
<path class="st3" d="M30.9,39.2l8.3,7.4l12.5-14.8"/>
<path id="Shape_2_copy_3" class="st4" d="M30.9,39.2l8.3,7.4L50,33.7"/>
<path id="Shape_2_copy" class="st3" d="M30.9,61l8.3,7.8l12.5-15.5"/>
<path id="Shape_2_copy_4" class="st4" d="M30.9,61l8.3,7.8L50,55.2"/>
</svg>
