<?xml version="1.0" encoding="utf-8"?>
<!-- Generator: Adobe Illustrator 23.0.3, SVG Export Plug-In . SVG Version: 6.00 Build 0)  -->
<svg version="1.1" id="_6" xmlns="http://www.w3.org/2000/svg" xmlns:xlink="http://www.w3.org/1999/xlink" x="0px" y="0px"
	 viewBox="0 0 127 127" style="enable-background:new 0 0 127 127;" xml:space="preserve">
<style type="text/css">
	.st0{fill:#2A3180;}
	
		.st1{fill-rule:evenodd;clip-rule:evenodd;fill:#2A3180;stroke:#FFFFFF;stroke-width:3;stroke-linecap:round;stroke-linejoin:round;}
	.st2{fill:#2A3180;stroke:#FFFFFF;stroke-width:3;stroke-linecap:round;stroke-linejoin:round;}
</style>
<circle class="st0" cx="63.5" cy="63.5" r="63.5"/>
<g>
	<path id="Rectangle_1_copy" class="st1" d="M74.3,55.1l-9.6,0.2l-1.5,39.1l17.3,5.1L74.3,55.1z"/>
	<path class="st1" d="M54.5,59.8l13.6,1l1.2,39.1l-22.1,4.7L54.5,59.8z"/>
	<path id="Polygon_1" class="st1" d="M81.9,68.1c-3.1,0.2-6.1,0.9-9,2c-3.1,1.4-6.1,3.2-8.7,5.3c-2.6-2.1-5.4-3.9-8.4-5.3
		c-3-1.2-6.1-1.8-9.3-2c-0.1-3.1-0.7-6.2-1.8-9.1c-1.4-3.1-3.3-6-5.5-8.6c2.2-2.6,4.1-5.4,5.5-8.5c1.2-2.9,1.8-6,1.8-9.2
		c3.2-0.7,6.3-1.6,9.3-2.8c2.9-1.2,5.8-2.8,8.4-4.5c2.7,2.2,5.6,4,8.7,5.4c2.9,1.1,5.9,1.8,9,1.9c0.2,3.2,1,6.3,2.1,9.2
		c1.4,3,3.1,5.9,5.2,8.5c-2.2,2.3-3.9,4.9-5.2,7.7C82.8,61.3,82.1,64.7,81.9,68.1z"/>
	<circle class="st2" cx="64.1" cy="50.4" r="12.6"/>
</g>
</svg>
