<?xml version="1.0" encoding="utf-8"?>
<!-- Generator: Adobe Illustrator 20.1.0, SVG Export Plug-In . SVG Version: 6.00 Build 0)  -->
<svg version="1.1" id="Layer_1" xmlns="http://www.w3.org/2000/svg" xmlns:xlink="http://www.w3.org/1999/xlink" x="0px" y="0px"
	 viewBox="0 0 800 800" style="enable-background:new 0 0 800 800;" xml:space="preserve">
<style type="text/css">
	.st0{fill:#2A3180;}
</style>
<g>
	<path class="st0" d="M538.5,215.1H257.6v133.5v13.9v133.5h280.9V215.1z M271.5,229.1h119.6v119.6H271.5V229.1z M271.5,482.2V362.5
		h75.4c13.7,0,36.8,39.6,40.6,51c5,15.5,25,56.9,43.4,68.6H271.5z M461.6,482.2c-22.1,0-45.3-34.9-60.9-72.8
		c-3.4-8.3-11.9-31.1-27-46.8h20.1c9.8,0,21.1,9,26.2,14.4c7,7.3,18,28.2,21.5,34.7c8.6,15.9,22.4,52.3,49.2,70.6H461.6z
		 M524.6,481.9c-33.5,0-60.9-58.7-70.8-76.8c-2.7-4.9-15.2-27.6-22.3-36.2c0,0,0,0,0,0v-61.4c0-3.5-3.1-6.4-7-6.4
		c-3.8,0-7,2.9-7,6.4v48.5c-3.8-2.6-8-4.6-12.6-5.9v-65.9h3.3c5.1,0,9.3-3.3,9.3-7.4v-47.9h107V481.9z"/>
	<path class="st0" d="M542,558.7c-3.9-8.6-14.8-34.1-52-34.1h-15.7v7.7h4.7v-3h11c18.3,0,29.7,6.6,36.8,14h-24.5v4.7h28.4
		c3.4,4.6,5.4,9.1,6.7,12.1H416v-36.9l-77.8,38.5l-80.7-38.4v39.1h4.7v-31.7l76,36.2l73.1-36.1v34h127.3c1.3,0,2.5-0.7,3.3-1.8
		C542.6,561.9,542.5,560,542,558.7z"/>
</g>
</svg>
