<?xml version="1.0" encoding="utf-8"?>
<!-- Generator: Adobe Illustrator 23.0.3, SVG Export Plug-In . SVG Version: 6.00 Build 0)  -->
<svg version="1.1" id="Слой_1" xmlns="http://www.w3.org/2000/svg" xmlns:xlink="http://www.w3.org/1999/xlink" x="0px" y="0px"
	 viewBox="0 0 70 36" style="enable-background:new 0 0 70 36;" xml:space="preserve">
<style type="text/css">
	.st0{fill:#FFFFFF;}
</style>
<g id="Меню" transform="translate(-2038 -83)">
	<path id="Rectangle_1" class="st0" d="M2139.6,99h40.7c1.1,0,2,0.9,2,2l0,0c0,1.1-0.9,2-2,2h-40.7c-1.1,0-2-0.9-2-2l0,0
		C2137.6,99.9,2138.5,99,2139.6,99z"/>
	<path id="Rectangle_2" class="st0" d="M2124.6,83h55.7c1.1,0,2,0.9,2,2l0,0c0,1.1-0.9,2-2,2h-55.7c-1.1,0-2-0.9-2-2l0,0
		C2122.6,83.9,2123.5,83,2124.6,83z"/>
	<path id="Rectangle_3" class="st0" d="M2124.6,115h55.7c1.1,0,2,0.9,2,2l0,0c0,1.1-0.9,2-2,2h-55.7c-1.1,0-2-0.9-2-2l0,0
		C2122.6,115.9,2123.5,115,2124.6,115z"/>
</g>
</svg>
